<svg width="153" height="91" viewBox="0 0 153 91" fill="none" xmlns="http://www.w3.org/2000/svg">
<g clip-path="url(#clip0_81_4446)">
<path d="M5.3124 77.299H6.34205L11.6544 90.8049H10.5353L8.78933 86.3629H2.85019L1.11918 90.8049H0L5.3124 77.299ZM5.81976 78.7396L3.23817 85.3425H8.40135L5.81976 78.7396Z" fill="#133C2E"/>
<path d="M29.1734 77.299V90.8049H28.4273L20.2199 79.0847V90.8049H19.1455V77.299H20.2199L28.099 88.5539V77.299H29.1734Z" fill="#133C2E"/>
<path d="M36.8584 78.3344V77.299H47.7966V78.3344H42.8721V90.8049H41.753V78.3344H36.8584Z" fill="#133C2E"/>
<path d="M56.586 77.299V90.8049H55.4668V77.299H56.586Z" fill="#133C2E"/>
<path d="M64.4648 85.5826V84.5771H69.7325V85.5826H64.4648Z" fill="#133C2E"/>
<path d="M81.7004 77.299H82.73L88.0424 90.8049H86.9232L85.1773 86.3629H79.2232L77.4922 90.8049H76.373L81.6854 77.299H81.7004ZM82.1928 78.7396L79.6112 85.3425H84.7744L82.1928 78.7396Z" fill="#133C2E"/>
<path d="M104.994 85.4626H101.488V84.4721H106.054V85.2675C106.054 86.9932 105.561 88.3888 104.591 89.4393C103.607 90.4898 102.308 91.015 100.682 91.015C98.9656 91.015 97.5331 90.3847 96.384 89.1092C95.235 87.8486 94.668 86.1529 94.668 84.067C94.668 81.981 95.235 80.2853 96.384 79.0247C97.5331 77.7492 98.9507 77.1189 100.667 77.1189C101.965 77.1189 103.054 77.464 103.95 78.1694C104.845 78.8597 105.427 79.8051 105.726 80.9906H104.606C103.965 79.1148 102.651 78.1694 100.667 78.1694C99.2342 78.1694 98.0703 78.7096 97.16 79.7751C96.2498 80.8405 95.8021 82.2812 95.8021 84.067C95.8021 85.8527 96.2498 87.3084 97.16 88.3738C98.0703 89.4393 99.2342 89.9795 100.682 89.9795C102.01 89.9795 103.039 89.5894 103.786 88.794C104.532 87.9987 104.935 86.9032 104.994 85.4776V85.4626Z" fill="#133C2E"/>
<path d="M115.008 77.299V90.8049H113.889V77.299H115.008Z" fill="#133C2E"/>
<path d="M133.765 77.299V90.8049H133.019L124.812 79.0847V90.8049H123.737V77.299H124.812L132.691 88.5539V77.299H133.765Z" fill="#133C2E"/>
<path d="M151.941 85.4626H148.434V84.4721H153V85.2675C153 86.9932 152.508 88.3888 151.538 89.4393C150.568 90.4898 149.255 91.015 147.628 91.015C145.912 91.015 144.479 90.3847 143.33 89.1092C142.181 87.8486 141.614 86.1529 141.614 84.067C141.614 81.981 142.181 80.2853 143.33 79.0247C144.479 77.7492 145.897 77.1189 147.613 77.1189C148.911 77.1189 150.001 77.464 150.896 78.1694C151.791 78.8597 152.373 79.8051 152.672 80.9906H151.553C150.911 79.1148 149.598 78.1694 147.613 78.1694C146.181 78.1694 145.017 78.7096 144.106 79.7751C143.196 80.8405 142.748 82.2812 142.748 84.067C142.748 85.8527 143.196 87.3084 144.106 88.3738C145.017 89.4393 146.181 89.9795 147.628 89.9795C148.956 89.9795 149.986 89.5894 150.732 88.794C151.478 87.9987 151.881 86.9032 151.941 85.4776V85.4626Z" fill="#133C2E"/>
<path d="M70.1057 16.5673H68.7627V26.5166H84.7894V16.5673H70.1057ZM83.4464 25.181H70.1057V17.9179H83.4464V25.181Z" fill="#133C2E"/>
<path d="M82.6108 11.7352L82.9838 5.52242H74.6422L75.5077 1.33558H85.9683V-0.0150146H67.8674V1.33558H74.1796L73.3141 5.52242H68.9418V6.87301H73.0455L72.0457 11.7352H65.9424V13.0857H87.6546V11.7352H82.6406H82.6108ZM74.3736 6.87301H81.5662L81.2827 11.7352H73.3738L74.3736 6.87301Z" fill="#133C2E"/>
<path d="M85.655 48.8125H65.9424V63.3839H67.2854V57.4863H85.655V63.3839H86.998V50.1481V48.7975H85.655V48.8125ZM85.655 56.1357H67.2854V53.8247H85.655V56.1357ZM85.655 52.4741H67.2854V50.1481H85.655V52.4741Z" fill="#133C2E"/>
<path d="M86.998 39.0432V37.6926H77.1491V35.5166H75.8061V37.6926H65.9424V39.0432H75.8061V41.3692H68.2404V42.7048H75.8061V45.2109H65.9424V46.5615H86.998V45.2109H77.1491V42.7048H84.6999V41.3692H77.1491V39.0432H86.998Z" fill="#133C2E"/>
</g>
<defs>
<clipPath id="clip0_81_4446">
<rect width="153" height="91" fill="white"/>
</clipPath>
</defs>
</svg>
