<svg width="74" height="76" viewBox="0 0 74 76" fill="none" xmlns="http://www.w3.org/2000/svg">
<g clip-path="url(#clip0_198_826)">
<path d="M74 76H0V0H74V76ZM0.869175 75.1073H73.1238V0.892751H0.869175V75.1073Z" fill="white"/>
<path d="M45.7623 68.7925C45.3383 68.865 44.9284 68.9013 44.5257 68.9013C43.0912 68.9013 42.0665 68.5384 41.4588 67.8126C40.844 67.0868 40.5402 66.1723 40.5402 65.0835V56.098H36.5547V55.2125H40.5048V50.3931H41.3811V55.2125H46.7657V56.098H41.3811V65.0835C41.3811 66.2013 41.6849 67.007 42.2997 67.4932C42.9074 67.9795 43.7201 68.2263 44.7306 68.2263C45.4726 68.2263 46.1509 68.1174 46.7657 67.907L46.8859 68.5166C46.5679 68.6328 46.1933 68.7344 45.7694 68.7997L45.7623 68.7925Z" fill="white"/>
<path d="M59.104 50.2842L54.1928 62.5359L49.1049 50.2842H48.1934L53.7617 63.4287L51.6913 68.5311H52.5251L60.0085 50.2842H59.104Z" fill="white"/>
<path d="M27.326 54.3855C27.1282 53.6089 26.8031 52.9121 26.3367 52.2879C25.8703 51.6637 25.2485 51.1701 24.4641 50.7927C23.6797 50.4153 22.7046 50.2266 21.5315 50.2266C20.7966 50.2266 20.09 50.3282 19.4045 50.5241C18.7191 50.7201 18.0831 51.0177 17.4966 51.4024C16.9101 51.7943 16.3871 52.2661 15.9208 52.8177C15.4544 53.3693 15.1011 54.0081 14.8608 54.7121V50.2701H13.9492V68.4155H14.8184V58.0073C14.8184 56.8315 14.9951 56.1129 15.3484 55.1911C15.7017 54.2694 16.1822 53.4927 16.7758 52.8468C17.3765 52.2008 18.0831 51.7072 18.9028 51.3661C19.7225 51.025 20.5988 50.8508 21.5245 50.8508C22.5703 50.8508 23.4395 51.0467 24.1249 51.4314C24.8104 51.8161 25.3545 52.3024 25.7573 52.8758C26.1601 53.4564 26.4357 54.0952 26.5841 54.8065C26.7324 55.5178 26.8031 56.1855 26.8031 56.8024V68.4082H27.644V56.7371C27.6087 55.9387 27.5098 55.1476 27.319 54.371L27.326 54.3855Z" fill="white"/>
<path d="M32.5479 68.473V55.2124H33.41V68.473H32.5479Z" fill="white"/>
<path d="M33.8061 51.0101C33.8061 51.5254 33.4033 51.9391 32.9016 51.9391C32.3999 51.9391 31.9971 51.5254 31.9971 51.0101C31.9971 50.4948 32.3999 50.0811 32.9016 50.0811C33.4033 50.0811 33.8061 50.4948 33.8061 51.0101Z" fill="white"/>
<path d="M8.13968 11.2065H7.27051V68.5096H8.13968V11.2065Z" fill="white"/>
<path d="M8.64186 8.31048C8.64186 8.84758 8.21787 9.28307 7.69495 9.28307C7.17203 9.28307 6.74805 8.84758 6.74805 8.31048C6.74805 7.77338 7.17203 7.33789 7.69495 7.33789C8.21787 7.33789 8.64186 7.77338 8.64186 8.31048Z" fill="white"/>
<path d="M66.6797 7.33057H65.8105V64.6336H66.6797V7.33057Z" fill="white"/>
<path d="M65.3086 67.5297C65.3086 66.9926 65.7326 66.5571 66.2555 66.5571C66.7784 66.5571 67.2024 66.9926 67.2024 67.5297C67.2024 68.0668 66.7784 68.5096 66.2555 68.5096C65.7326 68.5096 65.3086 68.0741 65.3086 67.5297Z" fill="white"/>
<path d="M36.8587 45.1964C28.598 45.1964 21.3054 40.377 19.5176 33.7358L20.3585 33.4963C22.0403 39.7528 28.9796 44.2964 36.8587 44.2964C46.1723 44.2964 53.7475 38.127 53.7475 30.5495C53.7475 22.972 46.1723 16.8026 36.8587 16.8026C30.6543 16.8026 24.9588 19.5679 21.9979 24.0172L21.2277 23.6034L27.0434 7.79521L27.4532 7.50488H53.5285V8.39763H27.7571L22.966 21.4187C26.3014 17.9711 31.3963 15.9026 36.8587 15.9026C46.6528 15.9026 54.6167 22.4712 54.6167 30.5422C54.6167 38.6133 46.6528 45.1819 36.8587 45.1819V45.1964Z" fill="white"/>
</g>
<defs>
<clipPath id="clip0_198_826">
<rect width="74" height="76" fill="white"/>
</clipPath>
</defs>
</svg>
