<svg width="49" height="50" viewBox="0 0 49 50" fill="none" xmlns="http://www.w3.org/2000/svg">
<g clip-path="url(#clip0_198_502)">
<path d="M49 50H0V0H49V50ZM0.575535 49.4127H48.4198V0.587336H0.575535V49.4127Z" fill="white"/>
<path d="M30.302 45.2584C30.0213 45.3061 29.7499 45.33 29.4832 45.33C28.5333 45.33 27.8548 45.0912 27.4524 44.6137C27.0453 44.1362 26.8441 43.5346 26.8441 42.8183V36.9067H24.2051V36.3242H26.8207V33.1535H27.4009V36.3242H30.9664V36.9067H27.4009V42.8183C27.4009 43.5537 27.6021 44.0837 28.0092 44.4036C28.4116 44.7236 28.9497 44.8859 29.6188 44.8859C30.1102 44.8859 30.5594 44.8143 30.9664 44.6758L31.046 45.0769C30.8354 45.1533 30.5874 45.2202 30.3067 45.2631L30.302 45.2584Z" fill="white"/>
<path d="M39.1367 33.0818L35.8847 41.1422L32.5157 33.0818H31.9121L35.5993 41.7295L34.2283 45.0864H34.7804L39.7356 33.0818H39.1367Z" fill="white"/>
<path d="M18.0939 35.7798C17.9629 35.2688 17.7477 34.8104 17.4389 34.3998C17.13 33.9891 16.7183 33.6644 16.1989 33.4161C15.6795 33.1678 15.0338 33.0436 14.257 33.0436C13.7704 33.0436 13.3025 33.1105 12.8486 33.2394C12.3948 33.3683 11.9736 33.5641 11.5853 33.8172C11.1969 34.0751 10.8506 34.3854 10.5418 34.7483C10.233 35.1113 9.99903 35.5315 9.83994 35.9946V33.0723H9.23633V45.01H9.81186V38.1625C9.81186 37.389 9.92884 36.9162 10.1628 36.3098C10.3968 35.7034 10.7149 35.1924 11.108 34.7674C11.5057 34.3425 11.9736 34.0178 12.5164 33.7933C13.0592 33.5689 13.6394 33.4543 14.2524 33.4543C14.9449 33.4543 15.5204 33.5832 15.9743 33.8363C16.4282 34.0894 16.7885 34.4093 17.0552 34.7865C17.3219 35.1686 17.5044 35.5888 17.6026 36.0567C17.7009 36.5247 17.7477 36.964 17.7477 37.3699V45.0052H18.3045V37.3269C18.2811 36.8016 18.2156 36.2812 18.0893 35.7702L18.0939 35.7798Z" fill="white"/>
<path d="M21.5527 45.0482V36.3241H22.1236V45.0482H21.5527Z" fill="white"/>
<path d="M22.3854 33.5593C22.3854 33.8984 22.1187 34.1705 21.7864 34.1705C21.4542 34.1705 21.1875 33.8984 21.1875 33.5593C21.1875 33.2203 21.4542 32.9481 21.7864 32.9481C22.1187 32.9481 22.3854 33.2203 22.3854 33.5593Z" fill="white"/>
<path d="M5.39096 7.37274H4.81543V45.0721H5.39096V7.37274Z" fill="white"/>
<path d="M5.72276 5.4675C5.72276 5.82086 5.44201 6.10736 5.09576 6.10736C4.7495 6.10736 4.46875 5.82086 4.46875 5.4675C4.46875 5.11414 4.7495 4.82764 5.09576 4.82764C5.44201 4.82764 5.72276 5.11414 5.72276 5.4675Z" fill="white"/>
<path d="M44.1527 4.82281H43.5771V42.5222H44.1527V4.82281Z" fill="white"/>
<path d="M43.2451 44.4275C43.2451 44.0741 43.5259 43.7876 43.8721 43.7876C44.2184 43.7876 44.4991 44.0741 44.4991 44.4275C44.4991 44.7808 44.2184 45.0721 43.8721 45.0721C43.5259 45.0721 43.2451 44.7856 43.2451 44.4275Z" fill="white"/>
<path d="M24.4064 29.7345C18.9365 29.7345 14.1077 26.5638 12.9238 22.1946L13.4806 22.037C14.5943 26.1532 19.1892 29.1424 24.4064 29.1424C30.5736 29.1424 35.5896 25.0836 35.5896 20.0984C35.5896 15.1132 30.5736 11.0543 24.4064 11.0543C20.2982 11.0543 16.5268 12.8736 14.5662 15.8008L14.0562 15.5286L17.9071 5.12844L18.1785 4.93744H35.4445V5.52478H18.3797L15.2073 14.0913C17.4158 11.8231 20.7895 10.4622 24.4064 10.4622C30.8917 10.4622 36.1651 14.7837 36.1651 20.0936C36.1651 25.4035 30.8917 29.7249 24.4064 29.7249V29.7345Z" fill="white"/>
</g>
<defs>
<clipPath id="clip0_198_502">
<rect width="49" height="50" fill="white"/>
</clipPath>
</defs>
</svg>
