<svg width="40" height="40" viewBox="0 0 40 40" fill="none" xmlns="http://www.w3.org/2000/svg">
<path d="M16.0827 12.6535C15.8144 12.9768 15.5778 13.2667 15.3762 13.5233C14.9646 14.0482 14.5764 14.5614 14.2098 15.0596C11.3522 18.9669 9.99754 22.0012 9.99754 23.9624C9.99754 29.0944 14.4381 33.325 19.995 33.325C25.552 33.325 29.9925 29.0961 29.9925 23.9624C29.9925 20.8165 26.71 15.4145 20.0417 8.2113C18.0555 10.3891 16.7292 11.877 16.0827 12.6535ZM19.995 36.6575C12.6335 36.6575 6.66504 30.9739 6.66504 23.9624C6.66504 21.1414 8.28297 17.519 11.5205 13.0934C12.1583 12.2125 12.8263 11.3539 13.5233 10.5191C14.4514 9.406 16.6092 7.00993 19.995 3.33252C28.8812 12.4119 33.325 19.2885 33.325 23.9624C33.325 30.9739 27.3565 36.6575 19.995 36.6575ZM19.995 31.6588C16.3126 31.6588 13.33 28.8161 13.33 25.3104C13.33 22.9743 15.5512 19.5351 19.995 14.9963C24.4389 19.5351 26.66 22.9743 26.66 25.3104C26.66 28.8161 23.6775 31.6588 19.995 31.6588ZM16.6625 25.3104C16.6625 26.9383 18.1188 28.3263 19.995 28.3263C21.8712 28.3263 23.3275 26.9383 23.3275 25.3104C23.3275 24.4156 22.2378 22.5194 19.995 19.9117C17.7523 22.5194 16.6625 24.4156 16.6625 25.3104Z" fill="#133C2E"/>
</svg>
