<svg width="22" height="22" viewBox="0 0 22 22" fill="none" xmlns="http://www.w3.org/2000/svg">
<g clip-path="url(#clip0_85_9912)">
<path d="M21.9789 6.46806C21.9274 5.29912 21.7383 4.49548 21.4675 3.79911C21.1882 3.05994 20.7584 2.39816 20.1953 1.84802C19.6452 1.28931 18.9791 0.855178 18.2484 0.580191C17.5481 0.309402 16.7486 0.12037 15.5797 0.0688306C14.402 0.0129267 14.0281 0 11.0412 0C8.0543 0 7.68043 0.0129267 6.50712 0.0644657C5.33818 0.116005 4.53454 0.305205 3.83834 0.575827C3.099 0.855178 2.43722 1.28495 1.88708 1.84802C1.32838 2.39816 0.894408 3.0643 0.619254 3.79492C0.348464 4.49548 0.159432 5.29475 0.107893 6.4637C0.0519892 7.64137 0.0390625 8.01524 0.0390625 11.0021C0.0390625 13.9891 0.0519892 14.3629 0.103528 15.5362C0.155067 16.7052 0.344267 17.5088 0.615057 18.2052C0.894408 18.9444 1.32838 19.6061 1.88708 20.1563C2.43722 20.715 3.10337 21.1491 3.83398 21.4241C4.53454 21.6949 5.33381 21.8839 6.50293 21.9355C7.67607 21.9872 8.0501 21.9999 11.037 21.9999C14.0239 21.9999 14.3978 21.9872 15.5711 21.9355C16.7401 21.8839 17.5437 21.6949 18.2399 21.4241C19.7184 20.8525 20.8873 19.6835 21.459 18.2052C21.7296 17.5046 21.9188 16.7052 21.9703 15.5362C22.0219 14.3629 22.0348 13.9891 22.0348 11.0021C22.0348 8.01524 22.0304 7.64137 21.9789 6.46806ZM19.9978 15.4503C19.9504 16.5247 19.7699 17.1049 19.6195 17.4917C19.2498 18.4501 18.4892 19.2108 17.5308 19.5805C17.144 19.7309 16.5596 19.9113 15.4893 19.9585C14.329 20.0102 13.981 20.023 11.0456 20.023C8.1102 20.023 7.75783 20.0102 6.60164 19.9585C5.52721 19.9113 4.94702 19.7309 4.56023 19.5805C4.08328 19.4042 3.64914 19.1248 3.29676 18.7595C2.93146 18.4028 2.65211 17.973 2.47583 17.4961C2.32541 17.1093 2.14494 16.5247 2.09777 15.4546C2.04606 14.2943 2.0333 13.9461 2.0333 11.0107C2.0333 8.07534 2.04606 7.72296 2.09777 6.56694C2.14494 5.49251 2.32541 4.91232 2.47583 4.52553C2.65211 4.04841 2.93146 3.61445 3.30113 3.2619C3.65771 2.89659 4.08748 2.61724 4.56459 2.44114C4.95138 2.29072 5.53594 2.11024 6.606 2.0629C7.76639 2.01136 8.11457 1.99844 11.0498 1.99844C13.9895 1.99844 14.3375 2.01136 15.4937 2.0629C16.5681 2.11024 17.1483 2.29072 17.5351 2.44114C18.0121 2.61724 18.4462 2.89659 18.7986 3.2619C19.1639 3.61864 19.4432 4.04841 19.6195 4.52553C19.7699 4.91232 19.9504 5.49671 19.9978 6.56694C20.0493 7.72732 20.0622 8.07534 20.0622 11.0107C20.0622 13.9461 20.0493 14.2899 19.9978 15.4503Z" fill="white"/>
<path d="M11.0402 5.35205C7.92013 5.35205 5.38867 7.88334 5.38867 11.0035C5.38867 14.1238 7.92013 16.655 11.0402 16.655C14.1604 16.655 16.6917 14.1238 16.6917 11.0035C16.6917 7.88334 14.1604 5.35205 11.0402 5.35205ZM11.0402 14.6695C9.01604 14.6695 7.37418 13.0278 7.37418 11.0035C7.37418 8.97925 9.01604 7.33756 11.0402 7.33756C13.0645 7.33756 14.7062 8.97925 14.7062 11.0035C14.7062 13.0278 13.0645 14.6695 11.0402 14.6695Z" fill="white"/>
<path d="M18.2346 5.12686C18.2346 5.85546 17.6438 6.44622 16.9151 6.44622C16.1865 6.44622 15.5957 5.85546 15.5957 5.12686C15.5957 4.3981 16.1865 3.8075 16.9151 3.8075C17.6438 3.8075 18.2346 4.3981 18.2346 5.12686Z" fill="white"/>
</g>
<defs>
<clipPath id="clip0_85_9912">
<rect width="22" height="22" fill="white"/>
</clipPath>
</defs>
</svg>
