<svg width="20" height="20" viewBox="0 0 20 20" fill="none" xmlns="http://www.w3.org/2000/svg">
<path d="M11.1879 10.0102L15.5988 5.59937C15.6783 5.52249 15.7418 5.43054 15.7855 5.32887C15.8292 5.2272 15.8522 5.11785 15.8531 5.0072C15.8541 4.89655 15.833 4.78682 15.7911 4.6844C15.7492 4.58199 15.6873 4.48895 15.6091 4.4107C15.5308 4.33246 15.4378 4.27058 15.3354 4.22868C15.233 4.18678 15.1232 4.1657 15.0126 4.16666C14.9019 4.16762 14.7926 4.19061 14.6909 4.23428C14.5892 4.27796 14.4973 4.34144 14.4204 4.42103L10.0096 8.83187L5.59876 4.42103C5.44159 4.26923 5.23109 4.18524 5.01259 4.18714C4.79409 4.18904 4.58508 4.27668 4.43057 4.43118C4.27607 4.58569 4.18843 4.7947 4.18653 5.0132C4.18463 5.2317 4.26862 5.4422 4.42042 5.59937L8.83126 10.0102L4.42042 14.421C4.34083 14.4979 4.27735 14.5899 4.23367 14.6915C4.19 14.7932 4.16701 14.9025 4.16605 15.0132C4.16509 15.1238 4.18617 15.2336 4.22807 15.336C4.26997 15.4384 4.33185 15.5315 4.41009 15.6097C4.48834 15.6879 4.58138 15.7498 4.68379 15.7917C4.78621 15.8336 4.89594 15.8547 5.00659 15.8537C5.11724 15.8528 5.22659 15.8298 5.32826 15.7861C5.42993 15.7424 5.52188 15.679 5.59876 15.5994L10.0096 11.1885L14.4204 15.5994C14.5776 15.7512 14.7881 15.8352 15.0066 15.8333C15.2251 15.8314 15.4341 15.7437 15.5886 15.5892C15.7431 15.4347 15.8308 15.2257 15.8327 15.0072C15.8345 14.7887 15.7506 14.5782 15.5988 14.421L11.1879 10.0102Z" fill="#133C2E"/>
</svg>
