<svg width="19" height="19" viewBox="0 0 19 19" fill="none" xmlns="http://www.w3.org/2000/svg">
<path fill-rule="evenodd" clip-rule="evenodd" d="M17.6582 13.1929C17.1962 12.9483 14.9497 11.7558 14.5305 11.5959C14.1113 11.4359 13.8045 11.35 13.5002 11.8418C13.1958 12.3336 12.311 13.4388 12.0494 13.7601C11.7878 14.0813 11.5165 14.1289 11.0533 13.883C9.70428 13.3096 8.45901 12.4839 7.3744 11.4438C6.37547 10.4563 5.5186 9.3129 4.83218 8.05139C4.56941 7.55958 4.80652 7.29385 5.03385 7.04926C5.26118 6.80468 5.48729 6.47284 5.72318 6.18992L5.89063 5.95327C5.99718 5.76402 6.09309 5.568 6.17785 5.36627C6.24015 5.23164 6.26959 5.08202 6.26339 4.93162C6.25719 4.78121 6.21554 4.63502 6.14241 4.50693C6.02874 4.26102 5.11207 1.84164 4.72707 0.859344C4.34207 -0.122952 3.96685 0.0462724 3.69674 0.0462724C3.42663 0.0462724 3.12841 0 2.82285 0C2.59114 0.00621902 2.36309 0.0638802 2.15284 0.169405C1.94259 0.274931 1.75463 0.426068 1.60063 0.613439C1.08465 1.13827 0.675787 1.77397 0.40027 2.47975C0.124753 3.18554 -0.0113342 3.94583 0.00073838 4.71185C0.00879966 5.27885 0.0885772 5.84199 0.237849 6.38559C0.596416 7.61325 1.14933 8.76424 1.87196 9.78727C2.09929 10.1085 5.03507 15.2315 9.68318 17.2067C14.3313 19.1819 14.3398 18.5103 15.1832 18.4257C15.8213 18.2966 16.4265 18.0216 16.9585 17.6192C17.4905 17.2168 17.937 16.6962 18.2681 16.0922C18.5689 15.3602 18.6633 14.5485 18.5394 13.7588C18.4196 13.5618 18.108 13.4388 17.6582 13.1929Z" fill="white"/>
</svg>
