<svg width="100" height="105" viewBox="0 0 100 105" fill="none" xmlns="http://www.w3.org/2000/svg">
<g clip-path="url(#clip0_49_1049)">
<path d="M100 105H0V0H100V105ZM1.17456 103.767H98.8159V1.23341H1.17456V103.767Z" fill="white"/>
<path d="M61.8411 95.0425C61.2682 95.1428 60.7143 95.1929 60.17 95.1929C58.2315 95.1929 56.8469 94.6916 56.0256 93.6888C55.1948 92.686 54.7842 91.4225 54.7842 89.9184V77.5041H49.3984V76.2807H54.7365V69.6223H55.9206V76.2807H63.1971V77.5041H55.9206V89.9184C55.9206 91.4626 56.3312 92.5757 57.162 93.2476C57.9832 93.9194 59.0814 94.2604 60.4469 94.2604C61.4496 94.2604 62.3664 94.1099 63.1971 93.8191L63.3595 94.6615C62.9298 94.8219 62.4236 94.9623 61.8507 95.0526L61.8411 95.0425Z" fill="white"/>
<path d="M79.8701 69.4719L73.2333 86.3987L66.3578 69.4719H65.126L72.6508 87.6321L69.8529 94.6815H70.9797L81.0924 69.4719H79.8701Z" fill="white"/>
<path d="M36.9274 75.1375C36.66 74.0645 36.2207 73.1019 35.5905 72.2395C34.9602 71.3771 34.1199 70.6952 33.0599 70.1738C31.9999 69.6523 30.6821 69.3916 29.097 69.3916C28.1038 69.3916 27.1489 69.532 26.2226 69.8027C25.2963 70.0735 24.4369 70.4846 23.6443 71.0161C22.8517 71.5576 22.1451 72.2094 21.5148 72.9715C20.8846 73.7336 20.4071 74.616 20.0824 75.5887V69.4518H18.8506V94.521H20.0251V80.1413C20.0251 78.5168 20.2639 77.5241 20.7413 76.2505C21.2188 74.977 21.8682 73.9041 22.6703 73.0116C23.482 72.1191 24.4369 71.4373 25.5446 70.9659C26.6523 70.4946 27.8365 70.254 29.0874 70.254C30.5007 70.254 31.6753 70.5247 32.6015 71.0562C33.5278 71.5877 34.2631 72.2595 34.8074 73.0517C35.3517 73.8539 35.7242 74.7364 35.9247 75.7191C36.1252 76.7018 36.2207 77.6243 36.2207 78.4767V94.511H37.3571V78.3864C37.3093 77.2834 37.1756 76.1904 36.9178 75.1174L36.9274 75.1375Z" fill="white"/>
<path d="M43.9844 94.6014V76.2808H45.1494V94.6014H43.9844Z" fill="white"/>
<path d="M45.6839 70.4747C45.6839 71.1867 45.1396 71.7582 44.4616 71.7582C43.7836 71.7582 43.2393 71.1867 43.2393 70.4747C43.2393 69.7627 43.7836 69.1912 44.4616 69.1912C45.1396 69.1912 45.6839 69.7627 45.6839 70.4747Z" fill="white"/>
<path d="M11.0007 15.4827H9.82617V94.6513H11.0007V15.4827Z" fill="white"/>
<path d="M11.6783 11.4817C11.6783 12.2237 11.1054 12.8254 10.3987 12.8254C9.6921 12.8254 9.11914 12.2237 9.11914 11.4817C9.11914 10.7396 9.6921 10.1379 10.3987 10.1379C11.1054 10.1379 11.6783 10.7396 11.6783 11.4817Z" fill="white"/>
<path d="M90.1062 10.1279H88.9316V89.2966H90.1062V10.1279Z" fill="white"/>
<path d="M88.2539 93.2976C88.2539 92.5555 88.8269 91.9539 89.5335 91.9539C90.2402 91.9539 90.8131 92.5555 90.8131 93.2976C90.8131 94.0396 90.2402 94.6513 89.5335 94.6513C88.8269 94.6513 88.2539 94.0496 88.2539 93.2976Z" fill="white"/>
<path d="M49.8089 62.4425C38.6458 62.4425 28.791 55.7841 26.375 46.6087L27.5114 46.2778C29.7841 54.9217 39.1615 61.199 49.8089 61.199C62.3949 61.199 72.6317 52.6755 72.6317 42.2066C72.6317 31.7377 62.3949 23.2141 49.8089 23.2141C41.4247 23.2141 33.7279 27.0347 29.7268 33.1817L28.6859 32.6101L36.545 10.7698L37.0988 10.3687H72.3357V11.6021H37.5095L31.035 29.5917C35.5423 24.8286 42.4273 21.9707 49.8089 21.9707C63.0442 21.9707 73.8062 31.0458 73.8062 42.1966C73.8062 53.3474 63.0442 62.4224 49.8089 62.4224V62.4425Z" fill="white"/>
</g>
<defs>
<clipPath id="clip0_49_1049">
<rect width="100" height="105" fill="white"/>
</clipPath>
</defs>
</svg>
