<svg width="40" height="40" viewBox="0 0 40 40" fill="none" xmlns="http://www.w3.org/2000/svg">
<mask id="path-1-inside-1_43_2219" fill="white">
<path d="M0 19.9949C0 8.95204 8.95204 0 19.9949 0C31.0378 0 39.9899 8.95204 39.9899 19.9949C39.9899 31.0378 31.0378 39.9899 19.9949 39.9899C8.95204 39.9899 0 31.0378 0 19.9949Z"/>
</mask>
<path d="M0 19.9949M39.9899 19.9949M39.9899 19.9949M0 19.9949M19.9949 0M39.9899 19.9949M19.9949 39.9899M0 19.9949M19.9949 39.9899V39.2568C9.35694 39.2568 0.733129 30.6329 0.733129 19.9949H0H-0.733129C-0.733129 31.4427 8.54715 40.723 19.9949 40.723V39.9899ZM39.9899 19.9949H39.2568C39.2568 30.6329 30.6329 39.2568 19.9949 39.2568V39.9899V40.723C31.4427 40.723 40.723 31.4427 40.723 19.9949H39.9899ZM19.9949 0V0.733129C30.6329 0.733129 39.2568 9.35694 39.2568 19.9949H39.9899H40.723C40.723 8.54715 31.4427 -0.733129 19.9949 -0.733129V0ZM19.9949 0V-0.733129C8.54714 -0.733129 -0.733129 8.54715 -0.733129 19.9949H0H0.733129C0.733129 9.35694 9.35694 0.733129 19.9949 0.733129V0Z" fill="#133C2E" fill-opacity="0.2" mask="url(#path-1-inside-1_43_2219)"/>
<path d="M17.4961 24.9923L22.4934 19.995L17.4961 14.9977" stroke="#133C2E" stroke-width="0.832884" stroke-linecap="round" stroke-linejoin="round"/>
</svg>
