<svg width="40" height="40" viewBox="0 0 40 40" fill="none" xmlns="http://www.w3.org/2000/svg">
<path d="M9.39132 18.6752L19.9953 29.2792L30.5994 18.6752C31.5369 17.7377 32.0636 16.4661 32.0636 15.1403C32.0636 13.8144 31.5369 12.5429 30.5994 11.6053C30.1351 11.1411 29.584 10.7729 28.9775 10.5216C28.371 10.2704 27.7209 10.1411 27.0644 10.1411C25.7385 10.1411 24.467 10.6678 23.5295 11.6053L19.9953 15.1394L16.4612 11.607C15.5213 10.682 14.254 10.166 12.9353 10.1712C11.6166 10.1764 10.3534 10.7025 9.42082 11.6348C8.48825 12.5672 7.96187 13.8303 7.95635 15.149C7.95082 16.4676 8.4666 17.7351 9.39132 18.6752ZM18.8173 9.24758L19.9953 10.4256L21.1734 9.24758C21.9458 8.46839 22.8645 7.84944 23.8767 7.42625C24.889 7.00306 25.9748 6.78398 27.072 6.78158C28.1691 6.77918 29.2559 6.9935 30.27 7.41225C31.2841 7.831 32.2055 8.44593 32.9813 9.22172C33.7571 9.99752 34.372 10.9189 34.7908 11.933C35.2095 12.9471 35.4238 14.0339 35.4214 15.1311C35.419 16.2282 35.1999 17.3141 34.7768 18.3263C34.3536 19.3386 33.7346 20.2572 32.9554 21.0296L21.175 32.8117C21.0203 32.9666 20.8365 33.0895 20.6342 33.1734C20.432 33.2572 20.2151 33.3004 19.9962 33.3004C19.7772 33.3004 19.5604 33.2572 19.3581 33.1734C19.1558 33.0895 18.972 32.9666 18.8173 32.8117L7.03525 21.0313C6.24546 20.2614 5.61641 19.3423 5.18459 18.3274C4.75277 17.3125 4.52677 16.2219 4.5197 15.119C4.51264 14.0161 4.72464 12.9227 5.14342 11.9023C5.56221 10.882 6.17943 9.95492 6.95928 9.17496C7.73914 8.39499 8.6661 7.77764 9.68641 7.35872C10.7067 6.93979 11.8 6.72763 12.903 6.73454C14.0059 6.74145 15.0965 6.96729 16.1115 7.39897C17.1265 7.83065 18.0456 8.45957 18.8156 9.24925L18.8173 9.24758Z" fill="#133C2E"/>
</svg>
