<svg width="40" height="40" viewBox="0 0 40 40" fill="none" xmlns="http://www.w3.org/2000/svg">
<path d="M6.15596 33.8399C2.97342 30.654 6.58585 21.8762 14.2289 14.2331C21.872 6.59002 30.6498 2.97593 33.8357 6.16013C37.0182 9.346 33.4058 18.1238 25.7627 25.7669C18.1196 33.41 9.34183 37.0241 6.15596 33.8399ZM8.46538 31.5305C9.82337 32.8901 16.9666 29.9475 23.4566 23.4575C29.9467 16.9674 32.8876 9.82421 31.5296 8.46622C30.1716 7.10656 23.0284 10.0492 16.5384 16.5392C10.0483 23.0292 7.10738 30.1725 8.46538 31.5305ZM14.2306 25.7652C6.58585 18.1238 2.97175 9.346 6.15596 6.16013C9.34183 2.97759 18.1196 6.59002 25.7627 14.2331C33.4058 21.8762 37.0199 30.654 33.8357 33.8399C30.6498 37.0224 21.872 33.41 14.2289 25.7669L14.2306 25.7652ZM16.5384 23.4575C23.0284 29.9475 30.1716 32.8884 31.5296 31.5305C32.8893 30.1725 29.9467 23.0292 23.4566 16.5392C16.9666 10.0492 9.82337 7.10823 8.46538 8.46622C7.10572 9.82421 10.0483 16.9674 16.5384 23.4575ZM19.9958 23.3325C19.112 23.3325 18.2644 22.9814 17.6394 22.3564C17.0144 21.7315 16.6633 20.8838 16.6633 20C16.6633 19.1162 17.0144 18.2685 17.6394 17.6436C18.2644 17.0186 19.112 16.6675 19.9958 16.6675C20.8797 16.6675 21.7273 17.0186 22.3523 17.6436C22.9772 18.2685 23.3283 19.1162 23.3283 20C23.3283 20.8838 22.9772 21.7315 22.3523 22.3564C21.7273 22.9814 20.8797 23.3325 19.9958 23.3325Z" fill="#133C2E"/>
</svg>
