<svg width="20" height="11" viewBox="0 0 20 11" fill="none" xmlns="http://www.w3.org/2000/svg">
<path fill-rule="evenodd" clip-rule="evenodd" d="M9.21995 0.22034C9.28962 0.150495 9.37238 0.0950809 9.4635 0.0572712C9.55462 0.0194616 9.6523 0 9.75095 0C9.8496 0 9.94728 0.0194616 10.0384 0.0572712C10.1295 0.0950809 10.2123 0.150495 10.2819 0.22034L19.2819 9.22034C19.4228 9.36117 19.5019 9.55218 19.5019 9.75134C19.5019 9.9505 19.4228 10.1415 19.2819 10.2823C19.1411 10.4232 18.9501 10.5023 18.7509 10.5023C18.5518 10.5023 18.3608 10.4232 18.2199 10.2823L9.75095 1.81184L1.28195 10.2823C1.14112 10.4232 0.950111 10.5023 0.750947 10.5023C0.551784 10.5023 0.360777 10.4232 0.219947 10.2823C0.0791174 10.1415 0 9.9505 0 9.75134C0 9.55218 0.0791174 9.36117 0.219947 9.22034L9.21995 0.22034Z" fill="white"/>
</svg>
