<svg width="22" height="22" viewBox="0 0 22 22" fill="none" xmlns="http://www.w3.org/2000/svg">
<path d="M0 5.5C0 4.77065 0.289731 4.07118 0.805456 3.55546C1.32118 3.03973 2.02065 2.75 2.75 2.75H19.25C19.9793 2.75 20.6788 3.03973 21.1945 3.55546C21.7103 4.07118 22 4.77065 22 5.5V16.5C22 17.2293 21.7103 17.9288 21.1945 18.4445C20.6788 18.9603 19.9793 19.25 19.25 19.25H2.75C2.02065 19.25 1.32118 18.9603 0.805456 18.4445C0.289731 17.9288 0 17.2293 0 16.5V5.5ZM2.75 4.125C2.38533 4.125 2.03559 4.26987 1.77773 4.52773C1.51987 4.78559 1.375 5.13533 1.375 5.5V5.79838L11 11.5734L20.625 5.79838V5.5C20.625 5.13533 20.4801 4.78559 20.2223 4.52773C19.9644 4.26987 19.6147 4.125 19.25 4.125H2.75ZM20.625 7.40162L14.1515 11.286L20.625 15.2694V7.40162ZM20.5782 16.8561L12.8233 12.0835L11 13.1766L9.17675 12.0835L1.42175 16.8548C1.49989 17.1473 1.67244 17.406 1.91261 17.5904C2.15279 17.7749 2.44715 17.875 2.75 17.875H19.25C19.5527 17.875 19.8469 17.7752 20.087 17.591C20.3272 17.4068 20.4999 17.1485 20.5782 16.8561V16.8561ZM1.375 15.2694L7.8485 11.286L1.375 7.40162V15.2694Z" fill="white"/>
</svg>
