<svg width="22" height="22" viewBox="0 0 22 22" fill="none" xmlns="http://www.w3.org/2000/svg">
<g clip-path="url(#clip0_198_855)">
<path d="M11 0C4.93625 0 0 4.20689 0 9.37702C0 14.0077 3.91417 17.8874 9.19875 18.6249C9.55717 18.7043 10.0448 18.8736 10.1686 19.1931C10.2786 19.4829 10.241 19.9306 10.2034 20.2328L10.0531 21.2143C10.0118 21.5041 9.83308 22.3554 11.0147 21.8351C12.1981 21.3166 17.3543 17.9094 19.6643 15.1211C21.2447 13.3036 22 11.4412 22 9.37702C22 4.20689 17.0637 0 11 0ZM6.69442 12.4514H4.50725C4.191 12.4514 3.92975 12.1768 3.92975 11.8459V7.25348C3.92975 6.92156 4.191 6.64703 4.50725 6.64703C4.82625 6.64703 5.08475 6.92156 5.08475 7.25348V11.2394H6.69442C7.01342 11.2394 7.271 11.512 7.271 11.8459C7.271 12.1768 7.0125 12.4514 6.69442 12.4514ZM8.95492 11.8459C8.95492 12.1768 8.69642 12.4514 8.3765 12.4514C8.06025 12.4514 7.80175 12.1768 7.80175 11.8459V7.25348C7.80175 6.92156 8.06025 6.64703 8.37925 6.64703C8.69642 6.64703 8.95492 6.92156 8.95492 7.25348V11.8459ZM14.2175 11.8459C14.2175 12.106 14.058 12.3366 13.8215 12.4198C13.7628 12.4399 13.6996 12.4494 13.6391 12.4494C13.4457 12.4494 13.2807 12.3624 13.1716 12.2084L10.9322 9.01544V11.8449C10.9322 12.1759 10.6764 12.4504 10.3538 12.4504C10.0366 12.4504 9.77992 12.1759 9.77992 11.8449V7.25348C9.77992 6.9933 9.9385 6.76278 10.1741 6.68051C10.2291 6.65851 10.2987 6.64895 10.3519 6.64895C10.5307 6.64895 10.6957 6.74938 10.8057 6.89382L13.0625 10.0992V7.25348C13.0625 6.92156 13.321 6.64703 13.64 6.64703C13.9562 6.64703 14.2175 6.92156 14.2175 7.25348V11.8459ZM17.7512 8.94274C18.0712 8.94274 18.3288 9.21727 18.3288 9.55015C18.3288 9.88207 18.0712 10.1566 17.7512 10.1566H16.1425V11.2394H17.7512C18.0712 11.2394 18.3288 11.512 18.3288 11.8459C18.3288 12.1768 18.0712 12.4514 17.7512 12.4514H15.5641C15.2478 12.4514 14.9893 12.1768 14.9893 11.8459V7.25348C14.9893 6.92156 15.2478 6.64703 15.5668 6.64703H17.754C18.0712 6.64703 18.3288 6.92156 18.3288 7.25348C18.3288 7.58923 18.0712 7.85993 17.7512 7.85993H16.1425V8.94274H17.7512Z" fill="white"/>
</g>
<defs>
<clipPath id="clip0_198_855">
<rect width="22" height="22" fill="white"/>
</clipPath>
</defs>
</svg>
