<svg width="40" height="40" viewBox="0 0 40 40" fill="none" xmlns="http://www.w3.org/2000/svg">
<mask id="path-1-inside-1_43_2216" fill="white">
<path d="M39.9902 19.9949C39.9902 31.0378 31.0382 39.9899 19.9953 39.9899C8.9524 39.9899 0.00035017 31.0378 0.000349204 19.9949C0.000348239 8.95205 8.95239 2.71341e-06 19.9953 1.74801e-06C31.0382 7.82613e-07 39.9902 8.95204 39.9902 19.9949Z"/>
</mask>
<path d="M39.9902 19.9949M0.000349204 19.9949M0.000349204 19.9949M39.9902 19.9949M19.9953 39.9899M0.000349204 19.9949M19.9953 1.74801e-06M39.9902 19.9949M19.9953 1.74801e-06L19.9953 0.733129C30.6333 0.733128 39.2571 9.35694 39.2571 19.9949L39.9902 19.9949L40.7234 19.9949C40.7234 8.54715 31.4431 -0.733127 19.9953 -0.733126L19.9953 1.74801e-06ZM0.000349204 19.9949L0.733477 19.9949C0.733476 9.35694 9.35729 0.73313 19.9953 0.733129L19.9953 1.74801e-06L19.9953 -0.733126C8.5475 -0.733125 -0.732779 8.54715 -0.732778 19.9949L0.000349204 19.9949ZM19.9953 39.9899L19.9953 39.2568C9.35729 39.2568 0.733478 30.6329 0.733477 19.9949L0.000349204 19.9949L-0.732778 19.9949C-0.732777 31.4427 8.5475 40.723 19.9953 40.723L19.9953 39.9899ZM19.9953 39.9899L19.9953 40.723C31.4431 40.723 40.7234 31.4427 40.7234 19.9949L39.9902 19.9949L39.2571 19.9949C39.2571 30.6329 30.6333 39.2568 19.9953 39.2568L19.9953 39.9899Z" fill="#133C2E" fill-opacity="0.2" mask="url(#path-1-inside-1_43_2216)"/>
<path d="M22.4941 14.9976L17.4968 19.9949L22.4941 24.9922" stroke="#133C2E" stroke-width="0.832884" stroke-linecap="round" stroke-linejoin="round"/>
</svg>
