<svg width="22" height="15" viewBox="0 0 22 15" fill="none" xmlns="http://www.w3.org/2000/svg">
<path d="M21.7809 3.23657C21.7809 3.23657 21.5659 1.76614 20.9043 1.1205C20.0664 0.270751 19.1297 0.266571 18.7 0.216643C15.6234 -6.38621e-08 11.0043 0 11.0043 0H10.9957C10.9957 0 6.37659 -6.38621e-08 3.3 0.216643C2.87034 0.266571 1.93358 0.270751 1.09571 1.1205C0.433949 1.76614 0.223409 3.23657 0.223409 3.23657C0.223409 3.23657 0 4.96532 0 6.68979V8.30604C0 10.0305 0.21912 11.7593 0.21912 11.7593C0.21912 11.7593 0.43395 13.2297 1.09142 13.8753C1.92929 14.7251 3.02929 14.6959 3.51912 14.7875C5.28088 14.95 11 15 11 15C11 15 15.6234 14.9916 18.7 14.7792C19.1297 14.7293 20.0664 14.7251 20.9043 13.8753C21.5659 13.2297 21.7809 11.7593 21.7809 11.7593C21.7809 11.7593 22 10.0347 22 8.30604V6.68979C22 4.96532 21.7809 3.23657 21.7809 3.23657ZM8.72696 10.2679V4.27382L14.6695 7.28132L8.72696 10.2679Z" fill="white"/>
</svg>
