<svg width="22" height="22" viewBox="0 0 22 22" fill="none" xmlns="http://www.w3.org/2000/svg">
<g clip-path="url(#clip0_198_850)">
<path d="M21.9779 6.46806C21.9264 5.29912 21.7374 4.49548 21.4666 3.79911C21.1872 3.05994 20.7574 2.39816 20.1944 1.84802C19.6442 1.28931 18.9781 0.855178 18.2475 0.580191C17.5471 0.309402 16.7476 0.12037 15.5787 0.0688306C14.401 0.0129267 14.0271 0 11.0402 0C8.05332 0 7.67946 0.0129267 6.50615 0.0644657C5.3372 0.116005 4.53356 0.305205 3.83737 0.575827C3.09803 0.855178 2.43624 1.28495 1.8861 1.84802C1.3274 2.39816 0.893432 3.0643 0.618277 3.79492C0.347488 4.49548 0.158456 5.29475 0.106917 6.4637C0.0510126 7.64137 0.0380859 8.01524 0.0380859 11.0021C0.0380859 13.9891 0.0510126 14.3629 0.102552 15.5362C0.154091 16.7052 0.343291 17.5088 0.61408 18.2052C0.893432 18.9444 1.3274 19.6061 1.8861 20.1563C2.43624 20.715 3.10239 21.1491 3.833 21.4241C4.53356 21.6949 5.33284 21.8839 6.50195 21.9355C7.67509 21.9872 8.04913 21.9999 11.036 21.9999C14.023 21.9999 14.3968 21.9872 15.5701 21.9355C16.7391 21.8839 17.5427 21.6949 18.2389 21.4241C19.7174 20.8525 20.8864 19.6835 21.458 18.2052C21.7286 17.5046 21.9178 16.7052 21.9694 15.5362C22.0209 14.3629 22.0338 13.9891 22.0338 11.0021C22.0338 8.01524 22.0295 7.64137 21.9779 6.46806ZM19.9968 15.4503C19.9494 16.5247 19.769 17.1049 19.6185 17.4917C19.2489 18.4501 18.4882 19.2108 17.5298 19.5805C17.143 19.7309 16.5586 19.9113 15.4884 19.9585C14.328 20.0102 13.98 20.023 11.0446 20.023C8.10923 20.023 7.75685 20.0102 6.60066 19.9585C5.52623 19.9113 4.94604 19.7309 4.55925 19.5805C4.0823 19.4042 3.64817 19.1248 3.29579 18.7595C2.93048 18.4028 2.65113 17.973 2.47486 17.4961C2.32444 17.1093 2.14397 16.5247 2.09679 15.4546C2.04509 14.2943 2.03233 13.9461 2.03233 11.0107C2.03233 8.07534 2.04509 7.72296 2.09679 6.56694C2.14397 5.49251 2.32444 4.91232 2.47486 4.52553C2.65113 4.04841 2.93048 3.61445 3.30015 3.2619C3.65673 2.89659 4.0865 2.61724 4.56361 2.44114C4.95041 2.29072 5.53496 2.11024 6.60503 2.0629C7.76541 2.01136 8.11359 1.99844 11.0488 1.99844C13.9885 1.99844 14.3366 2.01136 15.4927 2.0629C16.5672 2.11024 17.1474 2.29072 17.5342 2.44114C18.0111 2.61724 18.4452 2.89659 18.7976 3.2619C19.1629 3.61864 19.4423 4.04841 19.6185 4.52553C19.769 4.91232 19.9494 5.49671 19.9968 6.56694C20.0483 7.72732 20.0612 8.07534 20.0612 11.0107C20.0612 13.9461 20.0483 14.2899 19.9968 15.4503Z" fill="white"/>
<path d="M11.0402 5.35205C7.92013 5.35205 5.38867 7.88334 5.38867 11.0035C5.38867 14.1238 7.92013 16.655 11.0402 16.655C14.1604 16.655 16.6917 14.1238 16.6917 11.0035C16.6917 7.88334 14.1604 5.35205 11.0402 5.35205ZM11.0402 14.6695C9.01604 14.6695 7.37418 13.0278 7.37418 11.0035C7.37418 8.97925 9.01604 7.33756 11.0402 7.33756C13.0645 7.33756 14.7062 8.97925 14.7062 11.0035C14.7062 13.0278 13.0645 14.6695 11.0402 14.6695Z" fill="white"/>
<path d="M18.2356 5.12698C18.2356 5.85558 17.6448 6.44635 16.916 6.44635C16.1874 6.44635 15.5967 5.85558 15.5967 5.12698C15.5967 4.39822 16.1874 3.80762 16.916 3.80762C17.6448 3.80762 18.2356 4.39822 18.2356 5.12698Z" fill="white"/>
</g>
<defs>
<clipPath id="clip0_198_850">
<rect width="22" height="22" fill="white"/>
</clipPath>
</defs>
</svg>
