<svg width="40" height="40" viewBox="0 0 40 40" fill="none" xmlns="http://www.w3.org/2000/svg">
<path d="M19.9948 33.3251C20.4367 33.3251 20.8605 33.1495 21.173 32.837C21.4855 32.5245 21.661 32.1007 21.661 31.6588C21.661 31.2169 21.4855 30.7931 21.173 30.4806C20.8605 30.1681 20.4367 29.9926 19.9948 29.9926C19.5528 29.9926 19.129 30.1681 18.8165 30.4806C18.5041 30.7931 18.3285 31.2169 18.3285 31.6588C18.3285 32.1007 18.5041 32.5245 18.8165 32.837C19.129 33.1495 19.5528 33.3251 19.9948 33.3251ZM21.716 26.965C22.821 27.3708 23.7473 28.1534 24.3321 29.175C24.9168 30.1966 25.1223 31.3918 24.9125 32.55C24.7028 33.7083 24.0911 34.7554 23.1852 35.5071C22.2793 36.2587 21.1373 36.6667 19.9602 36.6592C18.7831 36.6517 17.6464 36.2291 16.7502 35.4659C15.854 34.7028 15.2558 33.6479 15.0608 32.487C14.8659 31.3262 15.0867 30.1338 15.6844 29.1197C16.2821 28.1056 17.2185 27.335 18.3285 26.9433V25.1988C18.3285 25.0755 18.3335 24.9522 18.3418 24.8305C18.292 24.6107 18.198 24.4033 18.0657 24.2209C17.9334 24.0385 17.7655 23.8848 17.572 23.7691L12.43 20.6949C11.6881 20.2511 11.074 19.6225 10.6476 18.8705C10.2212 18.1185 9.99714 17.2688 9.99726 16.4043V13.0451C8.88505 12.6521 7.94762 11.8784 7.35066 10.861C6.7537 9.84357 6.53565 8.64785 6.73506 7.4852C6.93447 6.32255 7.53849 5.26783 8.44037 4.50747C9.34224 3.74712 10.4839 3.33008 11.6635 3.33008C12.8431 3.33008 13.9848 3.74712 14.8867 4.50747C15.7885 5.26783 16.3926 6.32255 16.592 7.4852C16.7914 8.64785 16.5733 9.84357 15.9764 10.861C15.3794 11.8784 14.442 12.6521 13.3298 13.0451V16.4043C13.3299 16.6924 13.4047 16.9756 13.5469 17.2261C13.6891 17.4767 13.8939 17.6861 14.1412 17.8339L19.2833 20.9098C19.5453 21.0669 19.7924 21.2476 20.0214 21.4497C20.251 21.2475 20.4986 21.0668 20.7612 20.9098L25.9033 17.8339C26.1506 17.6861 26.3554 17.4767 26.4976 17.2261C26.6398 16.9756 26.7146 16.6924 26.7148 16.4043V13.0651C25.5944 12.6826 24.6462 11.915 24.0387 10.8989C23.4312 9.88282 23.204 8.68418 23.3973 7.51625C23.5907 6.34832 24.1921 5.28688 25.0946 4.52078C25.9971 3.75469 27.1422 3.33364 28.326 3.33256C29.5005 3.33207 30.6377 3.74518 31.5381 4.49942C32.4385 5.25366 33.0445 6.30085 33.2498 7.45729C33.4552 8.61373 33.2468 9.80555 32.6612 10.8237C32.0756 11.8418 31.1501 12.6212 30.0473 13.0251V16.4043C30.0474 17.2688 29.8233 18.1185 29.3969 18.8705C28.9705 19.6225 28.3564 20.2511 27.6145 20.6949L22.4725 23.7708C22.2791 23.8864 22.1111 24.0401 21.9788 24.2226C21.8465 24.405 21.7525 24.6124 21.7027 24.8322C21.711 24.9538 21.716 25.0771 21.716 25.1988V26.965ZM11.6635 9.99756C12.1054 9.99756 12.5292 9.82201 12.8417 9.50952C13.1542 9.19704 13.3298 8.77322 13.3298 8.33131C13.3298 7.88939 13.1542 7.46557 12.8417 7.15309C12.5292 6.84061 12.1054 6.66506 11.6635 6.66506C11.2216 6.66506 10.7978 6.84061 10.4853 7.15309C10.1728 7.46557 9.99726 7.88939 9.99726 8.33131C9.99726 8.77322 10.1728 9.19704 10.4853 9.50952C10.7978 9.82201 11.2216 9.99756 11.6635 9.99756ZM28.326 9.99756C28.7679 9.99756 29.1917 9.82201 29.5042 9.50952C29.8167 9.19704 29.9923 8.77322 29.9923 8.33131C29.9923 7.88939 29.8167 7.46557 29.5042 7.15309C29.1917 6.84061 28.7679 6.66506 28.326 6.66506C27.8841 6.66506 27.4603 6.84061 27.1478 7.15309C26.8353 7.46557 26.6598 7.88939 26.6598 8.33131C26.6598 8.77322 26.8353 9.19704 27.1478 9.50952C27.4603 9.82201 27.8841 9.99756 28.326 9.99756Z" fill="#133C2E"/>
</svg>
