<svg width="40" height="40" viewBox="0 0 40 40" fill="none" xmlns="http://www.w3.org/2000/svg">
<g clip-path="url(#clip0_54_829)">
<path d="M11.664 28.3263C11.664 29.2465 12.41 29.9925 13.3303 29.9925C14.2505 29.9925 14.9965 29.2465 14.9965 28.3263V11.6638C14.9965 10.7435 14.2505 9.99752 13.3303 9.99752C12.41 9.99752 11.664 10.7435 11.664 11.6638V28.3263ZM18.329 34.9913C18.329 35.9115 19.075 36.6575 19.9953 36.6575C20.9155 36.6575 21.6615 35.9115 21.6615 34.9913V4.99877C21.6615 4.07853 20.9155 3.33252 19.9953 3.33252C19.075 3.33252 18.329 4.07853 18.329 4.99877V34.9913ZM4.99902 21.6613C4.99902 22.5815 5.74503 23.3275 6.66527 23.3275C7.58552 23.3275 8.33152 22.5815 8.33152 21.6613V18.3288C8.33152 17.4085 7.58552 16.6625 6.66527 16.6625C5.74503 16.6625 4.99902 17.4085 4.99902 18.3288V21.6613ZM24.994 28.3263C24.994 29.2465 25.74 29.9925 26.6603 29.9925C27.5805 29.9925 28.3265 29.2465 28.3265 28.3263V11.6638C28.3265 10.7435 27.5805 9.99752 26.6603 9.99752C25.74 9.99752 24.994 10.7435 24.994 11.6638V28.3263ZM33.3253 16.6625C32.405 16.6625 31.659 17.4085 31.659 18.3288V21.6613C31.659 22.5815 32.405 23.3275 33.3253 23.3275C34.2455 23.3275 34.9915 22.5815 34.9915 21.6613V18.3288C34.9915 17.4085 34.2455 16.6625 33.3253 16.6625Z" fill="#133C2E"/>
</g>
<defs>
<clipPath id="clip0_54_829">
<rect width="39.99" height="39.99" fill="white"/>
</clipPath>
</defs>
</svg>
